<svg xmlns="http://www.w3.org/2000/svg" viewBox="0 0 200 220">
  <ellipse cx="100" cy="195" rx="55" ry="14" fill="#000000" opacity="0.12"/>
  <path d="M100 20 C40 20 22 70 26 120 C29 160 55 200 100 200 C145 200 171 160 174 120 C178 70 160 20 100 20 Z" fill="#a855f7"/>
  <path d="M100 20 C40 20 22 70 26 120 C29 160 55 200 100 200 C145 200 171 160 174 120 C178 70 160 20 100 20 Z" fill="url(#m1shade)" opacity="0.35"/>
  <defs>
    <linearGradient id="m1shade" x1="0" y1="0" x2="0" y2="1">
      <stop offset="0" stop-color="#ffffff"/>
      <stop offset="1" stop-color="#4c1d95"/>
    </linearGradient>
  </defs>
  <circle cx="63" cy="30" r="14" fill="#a855f7"/>
  <circle cx="137" cy="30" r="14" fill="#a855f7"/>
  <circle cx="63" cy="24" r="6" fill="#facc15"/>
  <circle cx="137" cy="24" r="6" fill="#facc15"/>
  <circle cx="100" cy="98" r="30" fill="#ffffff"/>
  <circle cx="100" cy="98" r="16" fill="#1f2937"/>
  <circle cx="106" cy="92" r="5" fill="#ffffff"/>
  <path d="M70 140 Q100 168 130 140" stroke="#1f2937" stroke-width="6" fill="none" stroke-linecap="round"/>
  <circle cx="70" cy="140" r="5" fill="#f9a8d4"/>
  <circle cx="130" cy="140" r="5" fill="#f9a8d4"/>
  <circle cx="55" cy="90" r="9" fill="#f9a8d4" opacity="0.7"/>
  <circle cx="145" cy="90" r="9" fill="#f9a8d4" opacity="0.7"/>
</svg>
