<svg xmlns="http://www.w3.org/2000/svg" viewBox="0 0 200 220">
  <ellipse cx="100" cy="200" rx="55" ry="12" fill="#000000" opacity="0.12"/>
  <rect x="90" y="20" width="20" height="18" rx="4" fill="#94a3b8"/>
  <circle cx="100" cy="16" r="8" fill="#f43f5e"/>
  <rect x="55" y="45" width="90" height="80" rx="18" fill="#cbd5e1"/>
  <rect x="55" y="45" width="90" height="80" rx="18" fill="url(#robotShade)" opacity="0.4"/>
  <defs>
    <linearGradient id="robotShade" x1="0" y1="0" x2="0" y2="1">
      <stop offset="0" stop-color="#ffffff"/>
      <stop offset="1" stop-color="#475569"/>
    </linearGradient>
  </defs>
  <circle cx="80" cy="80" r="14" fill="#38bdf8"/>
  <circle cx="120" cy="80" r="14" fill="#38bdf8"/>
  <circle cx="80" cy="80" r="6" fill="#0f172a"/>
  <circle cx="120" cy="80" r="6" fill="#0f172a"/>
  <rect x="80" y="105" width="40" height="8" rx="4" fill="#0f172a"/>
  <rect x="40" y="130" width="120" height="55" rx="14" fill="#94a3b8"/>
  <circle cx="100" cy="157" r="12" fill="#facc15"/>
  <rect x="15" y="135" width="25" height="16" rx="8" fill="#cbd5e1"/>
  <rect x="160" y="135" width="25" height="16" rx="8" fill="#cbd5e1"/>
</svg>
