<svg xmlns="http://www.w3.org/2000/svg" viewBox="0 0 200 220">
  <ellipse cx="100" cy="200" rx="55" ry="12" fill="#000000" opacity="0.12"/>
  <path d="M100 15 L112 45 L85 45 Z" fill="#fbbf24"/>
  <path d="M100 15 L112 45 L85 45 Z" fill="#f59e0b" opacity="0.5"/>
  <path d="M75 50 C40 55 30 100 40 135 C48 165 70 185 100 185 C130 185 152 165 160 135 C170 100 160 55 125 50 C112 65 88 65 75 50 Z" fill="#c084fc"/>
  <circle cx="82" cy="105" r="15" fill="#ffffff"/>
  <circle cx="118" cy="105" r="15" fill="#ffffff"/>
  <circle cx="82" cy="108" r="7" fill="#4c1d95"/>
  <circle cx="118" cy="108" r="7" fill="#4c1d95"/>
  <path d="M78 145 Q100 165 122 145" stroke="#4c1d95" stroke-width="5" fill="none" stroke-linecap="round"/>
  <path d="M60 90 Q45 95 48 115" stroke="#facc15" stroke-width="4" fill="none" stroke-linecap="round"/>
  <circle cx="47" cy="118" r="4" fill="#facc15"/>
</svg>
