<svg xmlns="http://www.w3.org/2000/svg" viewBox="0 0 200 220">
  <ellipse cx="100" cy="200" rx="55" ry="12" fill="#000000" opacity="0.12"/>
  <path d="M60 60 L40 170 L100 190 L160 170 L140 60 Z" fill="#ef4444"/>
  <path d="M100 40 C75 40 65 65 68 90 C70 108 82 122 100 122 C118 122 130 108 132 90 C135 65 125 40 100 40 Z" fill="#f9c9a4"/>
  <path d="M65 55 Q100 30 135 55 L135 65 Q100 45 65 65 Z" fill="#1f2937"/>
  <rect x="65" y="70" width="70" height="16" rx="6" fill="#1f2937"/>
  <circle cx="83" cy="78" r="5" fill="#ffffff"/>
  <circle cx="117" cy="78" r="5" fill="#ffffff"/>
  <path d="M85 105 Q100 115 115 105" stroke="#7c2d12" stroke-width="4" fill="none" stroke-linecap="round"/>
  <path d="M100 130 L108 150 L100 145 L92 150 Z" fill="#facc15"/>
  <path d="M40 100 L15 130 L45 125 Z" fill="#dc2626"/>
</svg>
