<svg xmlns="http://www.w3.org/2000/svg" viewBox="0 0 200 220">
  <ellipse cx="100" cy="200" rx="55" ry="12" fill="#000000" opacity="0.12"/>
  <line x1="85" y1="45" x2="70" y2="15" stroke="#22d3ee" stroke-width="5" stroke-linecap="round"/>
  <line x1="115" y1="45" x2="130" y2="15" stroke="#22d3ee" stroke-width="5" stroke-linecap="round"/>
  <circle cx="70" cy="15" r="8" fill="#67e8f9"/>
  <circle cx="130" cy="15" r="8" fill="#67e8f9"/>
  <path d="M100 40 C60 40 45 80 55 120 C62 155 80 180 100 180 C120 180 138 155 145 120 C155 80 140 40 100 40 Z" fill="#5eead4"/>
  <ellipse cx="80" cy="95" rx="20" ry="26" fill="#0f172a"/>
  <ellipse cx="120" cy="95" rx="20" ry="26" fill="#0f172a"/>
  <ellipse cx="86" cy="86" rx="6" ry="8" fill="#ffffff"/>
  <ellipse cx="126" cy="86" rx="6" ry="8" fill="#ffffff"/>
  <path d="M82 145 Q100 155 118 145" stroke="#0f766e" stroke-width="5" fill="none" stroke-linecap="round"/>
</svg>
